<svg xmlns="http://www.w3.org/2000/svg" viewBox="0 0 520 120" fill="none">
  <defs>
    <linearGradient id="fgA" x1="0%" y1="0%" x2="100%" y2="100%">
      <stop offset="0%" stop-color="#fff0a0"/>
      <stop offset="35%" stop-color="#d4a020"/>
      <stop offset="100%" stop-color="#7a4e00"/>
    </linearGradient>
    <radialGradient id="fiA" cx="50%" cy="45%" r="55%">
      <stop offset="0%" stop-color="#ffb928" stop-opacity=".44"/>
      <stop offset="100%" stop-color="#c87800" stop-opacity="0"/>
    </radialGradient>
    <filter id="lg" x="-6" y="-6" width="42" height="62" filterUnits="userSpaceOnUse">
      <feGaussianBlur stdDeviation="1.2" result="b"/>
      <feMerge>
        <feMergeNode in="b"/>
        <feMergeNode in="SourceGraphic"/>
      </feMerge>
    </filter>
    <symbol id="lanternA" viewBox="0 0 28 46">
      <line x1="14" y1="0" x2="14" y2="5" stroke="#c9a84c" stroke-opacity=".75" stroke-width="1.2" stroke-linecap="round"/>
      <ellipse cx="14" cy="5" rx="3" ry="2" fill="none" stroke="url(#fgA)" stroke-width="1.5"/>
      <polygon points="14,7 7,10 11,12 17,12 21,10" fill="url(#fgA)"/>
      <circle cx="14" cy="7" r="2" fill="#fff5c0"/>
      <circle cx="7" cy="10" r="1.5" fill="#f5e090"/>
      <circle cx="21" cy="10" r="1.5" fill="#f5e090"/>
      <path d="M5 12 C2 18 3 25 5 33 L23 33 C25 25 26 18 23 12 Z" fill="url(#fiA)"/>
      <path d="M5 12 C2 18 3 25 5 33 L23 33 C25 25 26 18 23 12 Z" fill="none" stroke="url(#fgA)" stroke-width="1.1"/>
      <line x1="14" y1="12" x2="14" y2="33" stroke="#c9a84c" stroke-opacity=".55" stroke-width=".9"/>
      <line x1="10" y1="13" x2="8" y2="32" stroke="#c9a84c" stroke-opacity=".35" stroke-width=".6"/>
      <line x1="18" y1="13" x2="20" y2="32" stroke="#c9a84c" stroke-opacity=".35" stroke-width=".6"/>
      <path d="M8 18 Q14 17 20 18" stroke="#c9a84c" stroke-opacity=".45" stroke-width=".7" fill="none"/>
      <path d="M7 23 Q14 21 21 23" stroke="#c9a84c" stroke-opacity=".5" stroke-width=".8" fill="none"/>
      <path d="M8 27 Q14 26 20 27" stroke="#c9a84c" stroke-opacity=".45" stroke-width=".7" fill="none"/>
      <g transform="translate(14,23) rotate(22.5)">
        <polygon points="0,-3 1,-1 3,0 1,1 0,3 -1,1 -3,0 -1,-1" fill="#ffdc46" fill-opacity=".8" stroke="#c9a84c" stroke-opacity=".4" stroke-width=".5"/>
      </g>
      <polygon points="14,33 7,35 11,33 17,33 21,35" fill="url(#fgA)"/>
      <circle cx="14" cy="33" r="1.8" fill="#fff5c0"/>
      <line x1="14" y1="35" x2="14" y2="46" stroke="url(#fgA)" stroke-width="1.4" stroke-linecap="round"/>
      <ellipse cx="14" cy="46" rx="3" ry="1" fill="url(#fgA)"/>
    </symbol>
  </defs>

  <g opacity=".95">
    <line x1="54" y1="0" x2="54" y2="22" stroke="#c9a84c" stroke-opacity=".55" stroke-width="1.2"/>
    <line x1="152" y1="0" x2="152" y2="28" stroke="#c9a84c" stroke-opacity=".55" stroke-width="1.2"/>
    <line x1="260" y1="0" x2="260" y2="18" stroke="#c9a84c" stroke-opacity=".55" stroke-width="1.2"/>
    <line x1="368" y1="0" x2="368" y2="30" stroke="#c9a84c" stroke-opacity=".55" stroke-width="1.2"/>
    <line x1="466" y1="0" x2="466" y2="22" stroke="#c9a84c" stroke-opacity=".55" stroke-width="1.2"/>
  </g>

  <g filter="url(#lg)">
    <use href="#lanternA" x="40" y="18"/>
    <use href="#lanternA" x="138" y="24"/>
    <use href="#lanternA" x="246" y="14"/>
    <use href="#lanternA" x="354" y="26"/>
    <use href="#lanternA" x="452" y="18"/>
  </g>
</svg>
